PathFileType	4	(X/Y/Z)	D:\TRACE\spotREDO_2-26-24\spot_Both_Motion_1_9-platform.trc
DataRate	CameraRate	NumFrames	NumMarkers	Units	OrigDataRate	OrigDataStartFrame	OrigNumFrames
100.00	100.00	      31	5	mm	100.00	1	      7000
Frame#	Time	Left_Front			Right_Front			Left_Aft			Right_Aft			Post			
		X1	Y1	Z1	X2	Y2	Z2	X3	Y3	Z3	X4	Y4	Z4	X5	Y5	Z5	

1	0.000	-696.80475	-3.85830	-575.64203	718.03125	5.15045	-491.25891	-768.05554	4.61310	642.91229	801.90753	11.82964	647.06952	13.16811	623.19861	-982.53186	
2	0.010	-696.87848	-3.82914	-575.64563	718.00134	5.15120	-491.32739	-768.06152	4.69408	642.93591	801.92725	11.85235	647.05811	13.55895	623.16748	-982.53357	
3	0.020	-696.83099	-3.84487	-575.64014	718.02521	5.15712	-491.20984	-768.02972	4.72583	642.96558	801.94647	11.90739	647.05426	13.73256	623.16504	-982.51239	
4	0.030	-696.79175	-3.82650	-575.64343	718.06604	5.19324	-491.22974	-767.98035	4.68977	642.99213	801.96521	11.82278	647.07428	12.70699	623.32635	-982.47870	
5	0.040	-696.79132	-3.84467	-575.62079	718.08063	5.22619	-491.16370	-767.98834	4.57997	642.99628	801.93042	11.82250	647.08240	12.66121	623.36774	-982.42352	
6	0.050	-696.84344	-3.78761	-575.65222	718.03558	5.15385	-491.22809	-768.02954	4.54620	642.93048	801.94232	11.80433	647.08228	12.00928	623.47961	-982.41870	
7	0.060	-696.86371	-3.79541	-575.64642	718.02240	5.16515	-491.24667	-768.11053	4.44918	642.82886	801.93030	11.83079	647.06708	12.17352	623.44714	-982.34052	
8	0.070	-696.85602	-3.84496	-575.67053	718.03857	5.13675	-491.28476	-768.24396	4.90891	642.79681	801.92389	11.91011	647.04211	12.44616	623.45251	-982.35919	
9	0.080	-696.81653	-3.83229	-575.64490	718.01404	5.12456	-491.24829	-768.10803	4.83640	642.92834	801.92963	11.89222	647.06000	12.66615	623.26715	-982.38928	
10	0.090	-696.78711	-3.84875	-575.65338	718.06244	5.17943	-491.20694	-768.03589	4.77793	642.97571	801.98108	11.85978	647.06055	12.73050	623.26605	-982.41461	
11	0.100	-696.82745	-3.83278	-575.62769	718.04053	5.18062	-491.17145	-768.08429	4.72474	642.89136	801.93304	11.85911	647.06348	12.74851	623.27399	-982.48816	
12	0.110	-696.83252	-3.81281	-575.62476	718.07489	5.19851	-491.22369	-768.18817	4.61087	642.78992	801.98029	11.83635	647.07770	12.85201	623.26422	-982.53369	
13	0.120	-696.85132	-3.79417	-575.62653	717.99414	5.15559	-491.22058	-768.12598	4.44029	642.77954	801.97400	11.83365	647.07373	12.85436	623.32660	-982.58698	
14	0.130	-696.73352	-3.91058	-575.85126	718.04858	5.17112	-491.21054	-768.11926	4.48963	642.78699	801.94586	11.83278	647.07324	12.77101	623.28979	-982.63135	
15	0.140	-696.80884	-3.85915	-575.66016	718.06116	5.18192	-491.21701	-768.02264	4.63110	642.85303	801.94519	11.82921	647.06506	12.80411	623.30164	-982.57446	
16	0.150	-696.80261	-3.83888	-575.65082	718.06787	5.20511	-491.15555	-767.99762	4.60480	642.88715	801.90442	11.83017	647.07251	12.75957	623.29852	-982.55951	
17	0.160	-696.80414	-3.86815	-575.65161	718.08820	5.18259	-491.22202	-768.00159	4.61747	642.89203	801.91119	11.82216	647.07391	12.78879	623.28418	-982.46228	
18	0.170	-696.83911	-3.87222	-575.65521	718.00702	5.17546	-491.24997	-768.09979	4.75558	642.91180	801.92657	11.85853	647.06116	12.84334	623.27026	-982.36768	
19	0.180	-696.71277	-3.95360	-575.83234	718.02960	5.17732	-491.21548	-768.08521	4.76970	642.90137	801.94354	11.85588	647.06348	12.85409	623.28558	-982.33899	
20	0.190	-696.80786	-3.85924	-575.65601	718.03882	5.16380	-491.24771	-768.04077	4.75723	643.00653	801.95172	11.82419	647.07153	12.84209	623.26282	-982.27014	
21	0.200	-696.68567	-3.97152	-575.82489	718.06445	5.20133	-491.23184	-768.11743	4.81160	642.95105	801.92267	11.82249	647.06378	12.87367	623.24451	-982.35803	
22	0.210	-696.68622	-3.98651	-575.83313	718.06055	5.19839	-491.20895	-768.19116	4.80440	642.80585	801.91302	11.82434	647.07336	12.87918	623.28595	-982.39929	
23	0.220	-696.78021	-3.87684	-575.84473	718.05481	5.18870	-491.17932	-768.39795	5.24899	642.81934	801.91852	11.84335	647.06598	12.88930	623.28894	-982.45190	
24	0.230	-696.69556	-3.94824	-575.83917	718.02869	5.14427	-491.23096	-768.04248	4.72409	642.95367	801.97479	11.85198	647.05316	12.95197	623.28955	-982.52783	
25	0.240	-696.69775	-3.92082	-575.82147	718.01923	5.17476	-491.25546	-768.10480	4.49581	642.85706	801.96497	11.83154	647.06122	12.94733	623.26819	-982.58423	
26	0.250	-696.81158	-3.84898	-575.65344	718.07666	5.19557	-491.18158	-768.00427	4.69745	642.96112	801.98859	11.85081	647.05042	12.97635	623.24091	-982.56995	
27	0.260	-696.67053	-4.04737	-575.67548	718.09656	5.20619	-491.20016	-768.01355	4.69342	642.96124	802.00055	11.86132	647.06342	13.00099	623.22748	-982.55786	
28	0.270	-696.69879	-3.88003	-575.94043	718.03369	5.17566	-491.20804	-768.04016	4.69452	642.94421	801.92853	11.85224	647.06158	13.02051	623.23462	-982.53064	
29	0.280	-696.70959	-3.99701	-575.80072	718.01941	5.15394	-491.23734	-768.08417	4.73007	642.94666	801.98914	11.85048	647.04260	13.03516	623.24585	-982.48907	
30	0.290	-696.82098	-3.86587	-575.58124	718.13666	5.21347	-491.13541	-768.04669	4.72231	642.93372	801.93811	11.82215	647.06165	13.03135	623.19946	-982.49982	
31	0.300	-696.86285	-3.85570	-575.60101	718.04498	5.22860	-491.27637	-768.05151	4.73221	642.95172	801.93475	11.82693	647.06927	12.95601	623.24603	-982.40601	
